<svg xmlns="http://www.w3.org/2000/svg" width=".75em" height=".75em" version="1.1" viewBox="0 0 100 100"><g stroke-width=".004"><g stroke-width=".004"><path stroke-width=".004" d="m3-2.6094c0.1875-0.1875 1-0.48438 1.5625-0.59375v-0.046875c-0.5625-0.10938-1.375-0.42188-1.5625-0.60938s-0.48438-1-0.59375-1.5781h-0.046875c-0.10938 0.57812-0.42188 1.3906-0.59375 1.5781-0.20312 0.1875-1.0156 0.5-1.5781 0.59375v0.0625c0.5625 0.10938 1.375 0.40625 1.5625 0.59375s0.5 1 0.60938 1.5625h0.046875c0.10938-0.5625 0.42188-1.3906 0.59375-1.5625z" transform="matrix(244.01 0 0 244.01 -16552 -19112) matrix(.093339 0 0 .093339 67.814 78.832)"/></g></g></svg>